<svg xmlns="http://www.w3.org/2000/svg" xmlns:xlink="http://www.w3.org/1999/xlink" width="2000" zoomAndPan="magnify" viewBox="0 0 1500 1499.999933" height="2000" preserveAspectRatio="xMidYMid meet" version="1.0"><defs><g/><clipPath id="f00aeee83b"><path d="M 70.5 0 L 1429.5 0 C 1468.4375 0 1500 31.5625 1500 70.5 L 1500 1429.5 C 1500 1468.4375 1468.4375 1500 1429.5 1500 L 70.5 1500 C 31.5625 1500 0 1468.4375 0 1429.5 L 0 70.5 C 0 31.5625 31.5625 0 70.5 0 Z M 70.5 0 " clip-rule="nonzero"/></clipPath><clipPath id="0c0ee77253"><path d="M 0 0 L 1500 0 L 1500 1500 L 0 1500 Z M 0 0 " clip-rule="nonzero"/></clipPath><clipPath id="5bba172b79"><path d="M 70.5 0 L 1429.5 0 C 1468.4375 0 1500 31.5625 1500 70.5 L 1500 1429.5 C 1500 1468.4375 1468.4375 1500 1429.5 1500 L 70.5 1500 C 31.5625 1500 0 1468.4375 0 1429.5 L 0 70.5 C 0 31.5625 31.5625 0 70.5 0 Z M 70.5 0 " clip-rule="nonzero"/></clipPath><clipPath id="6734a605c5"><rect x="0" width="1500" y="0" height="1500"/></clipPath><clipPath id="0c79418f18"><path d="M 26.355469 21.960938 L 515.335938 21.960938 L 515.335938 617.109375 L 26.355469 617.109375 Z M 26.355469 21.960938 " clip-rule="nonzero"/></clipPath><clipPath id="0c0e1d9ab1"><path d="M 987 879.59375 L 1475.757812 879.59375 L 1475.757812 1474.738281 L 987 1474.738281 Z M 987 879.59375 " clip-rule="nonzero"/></clipPath><clipPath id="9830151f73"><rect x="0" width="795" y="0" height="1500"/></clipPath><clipPath id="d9511b50a6"><path d="M 70.5 0 L 1429.5 0 C 1468.4375 0 1500 31.5625 1500 70.5 L 1500 1429.5 C 1500 1468.4375 1468.4375 1500 1429.5 1500 L 70.5 1500 C 31.5625 1500 0 1468.4375 0 1429.5 L 0 70.5 C 0 31.5625 31.5625 0 70.5 0 Z M 70.5 0 " clip-rule="nonzero"/></clipPath></defs><g clip-path="url(#f00aeee83b)"><g transform="matrix(1, 0, 0, 1, 0, 0.000000000000112861)"><g clip-path="url(#6734a605c5)"><g clip-path="url(#0c0ee77253)"><g clip-path="url(#5bba172b79)"><rect x="-330" width="2160" fill="#ffffff" height="2159.999904" y="-329.999985" fill-opacity="1"/></g></g></g></g><path stroke-linecap="butt" transform="matrix(0.75, 0, 0, 0.75, 0.00003335, -0.00002)" fill="none" stroke-linejoin="miter" d="M 93.99997 0.0000266667 L 1906.000242 0.0000266667 C 1957.916916 0.0000266667 2000.000256 42.083366 2000.000256 94.000041 L 2000.000256 1906.000313 C 2000.000256 1957.916987 1957.916916 2000.000327 1906.000242 2000.000327 L 93.99997 2000.000327 C 42.083295 2000.000327 -0.0000444667 1957.916987 -0.0000444667 1906.000313 L -0.0000444667 94.000041 C -0.0000444667 42.083366 42.083295 0.0000266667 93.99997 0.0000266667 Z M 93.99997 0.0000266667 " stroke="#000000" stroke-width="80" stroke-opacity="1" stroke-miterlimit="4"/></g><g clip-path="url(#0c79418f18)"><path fill="#a50779" d="M 401.683594 -27.886719 L -152.914062 -27.886719 L -152.914062 617.195312 L 37.070312 617.195312 C 99.574219 617.195312 150.261719 566.511719 150.261719 504.007812 C 150.261719 463.40625 128.824219 427.746094 96.703125 407.777344 L 219.578125 407.777344 C 282.082031 407.777344 332.765625 357.09375 332.765625 294.589844 C 332.765625 253.988281 311.332031 218.328125 279.210938 198.359375 L 401.816406 198.359375 C 464.320312 198.359375 515.007812 147.675781 515.007812 85.171875 C 514.875 22.796875 464.1875 -27.886719 401.683594 -27.886719 Z M 401.683594 -27.886719 " fill-opacity="1" fill-rule="nonzero"/></g><g clip-path="url(#0c0e1d9ab1)"><path fill="#a50779" d="M 1100.429688 1524.585938 L 1655.027344 1524.585938 L 1655.027344 879.503906 L 1465.042969 879.503906 C 1402.535156 879.503906 1351.851562 930.1875 1351.851562 992.695312 C 1351.851562 1033.292969 1373.289062 1068.953125 1405.410156 1088.921875 L 1282.535156 1088.921875 C 1220.03125 1088.921875 1169.34375 1139.605469 1169.34375 1202.113281 C 1169.34375 1242.714844 1190.78125 1278.375 1222.902344 1298.339844 L 1100.296875 1298.339844 C 1037.789062 1298.339844 987.105469 1349.023438 987.105469 1411.53125 C 987.238281 1473.902344 1037.925781 1524.585938 1100.429688 1524.585938 Z M 1100.429688 1524.585938 " fill-opacity="1" fill-rule="nonzero"/></g><g transform="matrix(1, 0, 0, 1, 446, 0.000000000000112861)"><g clip-path="url(#9830151f73)"><g fill="#000000" fill-opacity="1"><g transform="translate(34.229098, 1364.831397)"><g><path d="M 110.851562 -566.851562 C 103.945312 -569.917969 96.167969 -572.042969 87.519531 -573.222656 C 78.007812 -574.519531 68.496094 -575.167969 58.992188 -575.167969 C 51.070312 -575.167969 44.0625 -574.40625 37.96875 -572.882812 L 33.710938 -589.917969 L 39.261719 -573.261719 C 31.839844 -570.785156 25.777344 -569.550781 21.070312 -569.550781 C 11.589844 -569.550781 3.566406 -572.363281 -3 -577.992188 C -9.109375 -583.226562 -13.320312 -590.464844 -15.628906 -599.703125 L -15.683594 -599.929688 L -15.734375 -600.152344 C -18.691406 -613.457031 -15.976562 -626.398438 -7.585938 -638.984375 C 0.417969 -650.992188 9.765625 -658.523438 20.457031 -661.578125 L 25.28125 -644.695312 L 17.429688 -660.398438 C 21.773438 -662.570312 28.605469 -663.65625 37.921875 -663.65625 C 48.0625 -663.65625 60.542969 -662.667969 75.359375 -660.695312 C 89.632812 -658.789062 102.269531 -656.882812 113.265625 -654.96875 L 129.417969 -652.160156 L 126.410156 -634.863281 L 110.023438 -641.164062 L 113.535156 -650.296875 C 115.617188 -655.714844 117.511719 -661.820312 119.210938 -668.617188 C 134.222656 -734.308594 151.382812 -799.410156 170.6875 -863.925781 C 189.75 -927.617188 206.253906 -992.011719 220.203125 -1057.101562 L 237.371094 -1053.421875 L 220.082031 -1056.472656 C 223.058594 -1073.351562 227.289062 -1089.507812 232.761719 -1104.941406 C 237.839844 -1119.246094 242.683594 -1133.78125 247.300781 -1148.550781 L 264.058594 -1143.316406 L 247.175781 -1148.136719 C 249.800781 -1157.324219 254.375 -1165.507812 260.898438 -1172.683594 C 269.0625 -1181.664062 279.480469 -1186.15625 292.148438 -1186.15625 C 307.277344 -1186.15625 318.9375 -1180.828125 327.132812 -1170.171875 C 333.300781 -1162.152344 337.617188 -1153.214844 340.082031 -1143.359375 C 341.976562 -1135.789062 343.867188 -1127.984375 345.757812 -1119.945312 C 347.773438 -1111.378906 349.289062 -1103.039062 350.304688 -1094.929688 L 332.882812 -1092.75 L 350.117188 -1096.085938 C 372.65625 -979.652344 391.90625 -862.511719 407.867188 -744.667969 C 423.730469 -627.570312 443.789062 -511.175781 468.046875 -395.476562 L 450.863281 -391.875 L 467.898438 -396.132812 C 469.808594 -388.492188 471.714844 -380.382812 473.621094 -371.804688 C 475.5625 -363.070312 477.027344 -355.742188 478.015625 -349.8125 L 460.695312 -346.925781 L 477.453125 -352.164062 C 482.054688 -337.449219 487.816406 -320.625 494.742188 -301.691406 C 502.917969 -279.347656 504.789062 -257.636719 500.351562 -236.5625 L 500.28125 -236.242188 L 500.203125 -235.921875 C 497.90625 -226.742188 494.207031 -217.894531 489.09375 -209.375 C 481.472656 -196.671875 470.132812 -190.316406 455.078125 -190.316406 L 455.078125 -207.875 L 456.824219 -190.40625 C 440.328125 -188.753906 428.035156 -194.222656 419.945312 -206.808594 C 414.6875 -214.984375 410.890625 -223.753906 408.550781 -233.113281 L 408.394531 -233.734375 L 408.285156 -234.363281 C 404.523438 -256 400.992188 -277.40625 397.699219 -298.582031 C 394.445312 -319.5 390.960938 -340.1875 387.238281 -360.640625 C 381.628906 -392.4375 375.789062 -423.972656 369.722656 -455.246094 C 363.585938 -486.875 358.15625 -518.742188 353.433594 -550.84375 C 352.75 -556.304688 350.863281 -561.777344 347.777344 -567.261719 L 341.457031 -578.5 L 356.757812 -587.109375 L 358.21875 -569.609375 L 349.789062 -568.910156 C 345.917969 -568.585938 342.457031 -567.8125 339.402344 -566.59375 L 337.640625 -565.886719 L 335.769531 -565.574219 C 312.703125 -561.730469 289.632812 -559.085938 266.558594 -557.644531 C 243.71875 -556.21875 220.882812 -555.503906 198.042969 -555.503906 C 190.710938 -555.503906 183.148438 -556.023438 175.355469 -557.0625 L 164.824219 -558.46875 L 167.144531 -575.871094 L 184.023438 -571.046875 L 179.8125 -556.300781 L 172.789062 -531.71875 L 155.90625 -536.542969 L 173.023438 -532.632812 C 157.992188 -466.871094 141.785156 -401.582031 124.40625 -336.761719 C 107.207031 -272.609375 92.5625 -207.523438 80.476562 -141.507812 L 80.375 -140.957031 L 80.238281 -140.410156 C 79.652344 -138.0625 79.359375 -135.738281 79.359375 -133.433594 C 79.359375 -128.527344 78.777344 -123.167969 77.613281 -117.347656 L 77.398438 -116.277344 L 77.050781 -115.242188 C 74.546875 -107.71875 71.039062 -101.0625 66.53125 -95.265625 C 59.738281 -86.53125 49.734375 -82.167969 36.519531 -82.167969 L 35.96875 -82.167969 L 35.421875 -82.199219 C 23.160156 -82.96875 13.324219 -87.46875 5.910156 -95.703125 C -0.84375 -103.210938 -4.890625 -113.300781 -6.222656 -125.976562 L -6.320312 -126.894531 L -6.320312 -127.816406 C -6.320312 -135.609375 -5.488281 -143.390625 -3.824219 -151.15625 C -2.503906 -157.316406 -1.40625 -163.472656 -0.527344 -169.625 L -0.496094 -169.851562 L -0.457031 -170.074219 C 9.945312 -231.535156 23.417969 -292.050781 39.96875 -351.625 C 56.265625 -410.304688 70.9375 -469.449219 83.976562 -529.058594 L 84.175781 -529.972656 L 84.472656 -530.859375 C 86.265625 -536.234375 89 -545.355469 92.675781 -558.222656 L 101.101562 -587.71875 L 117.984375 -582.894531 Z M 125.113281 -598.9375 L 139.058594 -592.742188 L 126.4375 -548.574219 C 122.621094 -535.222656 119.738281 -525.613281 117.785156 -519.753906 L 101.128906 -525.308594 L 118.28125 -521.554688 C 105.101562 -461.308594 90.273438 -401.535156 73.800781 -342.226562 C 57.578125 -283.820312 44.363281 -224.480469 34.164062 -164.214844 L 16.855469 -167.144531 L 34.234375 -164.660156 C 33.242188 -157.703125 32 -150.75 30.511719 -143.800781 C 29.367188 -138.457031 28.792969 -133.128906 28.792969 -127.816406 L 11.238281 -127.816406 L 28.699219 -129.652344 C 29.234375 -124.539062 30.339844 -121.050781 32.011719 -119.195312 C 33.027344 -118.066406 34.894531 -117.417969 37.613281 -117.246094 L 36.519531 -99.722656 L 36.519531 -117.28125 C 38.054688 -117.28125 39.140625 -117.40625 39.777344 -117.65625 C 39.472656 -117.535156 39.148438 -117.257812 38.8125 -116.824219 C 40.859375 -119.453125 42.5 -122.628906 43.738281 -126.34375 L 60.394531 -120.792969 L 43.179688 -124.234375 C 43.890625 -127.78125 44.242188 -130.847656 44.242188 -133.433594 C 44.242188 -138.621094 44.886719 -143.785156 46.171875 -148.929688 L 63.207031 -144.671875 L 45.933594 -147.832031 C 58.191406 -214.78125 73.046875 -280.789062 90.492188 -345.855469 C 107.757812 -410.253906 123.855469 -475.121094 138.789062 -540.457031 L 138.894531 -540.914062 L 146.046875 -565.945312 L 154.429688 -595.277344 L 179.996094 -591.871094 C 186.25 -591.035156 192.265625 -590.621094 198.042969 -590.621094 C 220.152344 -590.621094 242.257812 -591.308594 264.367188 -592.691406 C 286.238281 -594.058594 308.117188 -596.566406 329.996094 -600.210938 L 332.882812 -582.894531 L 326.359375 -599.195312 C 332.671875 -601.71875 339.507812 -603.289062 346.875 -603.902344 L 366.535156 -605.539062 L 378.382812 -584.480469 C 383.722656 -574.984375 386.988281 -565.472656 388.175781 -555.953125 C 392.816406 -524.378906 398.15625 -493.042969 404.191406 -461.933594 C 410.296875 -430.46875 416.164062 -398.796875 421.789062 -366.921875 C 425.5625 -346.175781 429.097656 -325.195312 432.398438 -303.976562 C 435.660156 -283.015625 439.152344 -261.8125 442.878906 -240.378906 L 425.582031 -237.371094 L 442.617188 -241.628906 C 444.019531 -236.007812 446.308594 -230.730469 449.480469 -225.796875 C 449.816406 -225.273438 451.101562 -225.121094 453.332031 -225.34375 L 454.203125 -225.433594 L 455.078125 -225.433594 C 456.878906 -225.433594 458.179688 -226.101562 458.984375 -227.441406 C 462.300781 -232.972656 464.6875 -238.636719 466.136719 -244.4375 L 483.171875 -240.179688 L 465.988281 -243.796875 C 469.042969 -258.304688 467.636719 -273.582031 461.765625 -289.628906 C 454.644531 -309.085938 448.703125 -326.441406 443.9375 -341.691406 L 443.578125 -342.847656 L 443.378906 -344.039062 C 442.492188 -349.351562 441.148438 -356.066406 439.34375 -364.1875 C 437.503906 -372.464844 435.667969 -380.273438 433.832031 -387.613281 L 433.75 -387.941406 L 433.679688 -388.269531 C 409.25 -504.792969 389.046875 -622.023438 373.070312 -739.957031 C 357.195312 -857.140625 338.054688 -973.628906 315.644531 -1089.414062 L 315.53125 -1089.992188 L 315.460938 -1090.574219 C 314.601562 -1097.445312 313.308594 -1104.554688 311.578125 -1111.90625 C 309.722656 -1119.785156 307.871094 -1127.429688 306.015625 -1134.84375 C 304.734375 -1139.96875 302.496094 -1144.609375 299.300781 -1148.761719 C 298.132812 -1150.28125 295.75 -1151.039062 292.148438 -1151.039062 C 289.835938 -1151.039062 288.082031 -1150.378906 286.882812 -1149.0625 C 284.039062 -1145.9375 282.058594 -1142.414062 280.941406 -1138.492188 L 280.816406 -1138.078125 C 276.066406 -1122.882812 271.082031 -1107.925781 265.855469 -1093.199219 C 261.03125 -1079.605469 257.300781 -1065.328125 254.660156 -1050.371094 L 254.605469 -1050.058594 L 254.539062 -1049.742188 C 240.394531 -983.742188 223.660156 -918.445312 204.328125 -853.855469 C 185.246094 -790.085938 168.226562 -725.5 153.277344 -660.101562 C 151.230469 -651.914062 148.90625 -644.445312 146.308594 -637.691406 L 137.617188 -615.09375 L 107.25 -620.375 C 96.710938 -622.207031 84.53125 -624.042969 70.71875 -625.886719 C 57.441406 -627.65625 46.511719 -628.542969 37.921875 -628.542969 C 35.292969 -628.542969 33.25 -628.460938 31.785156 -628.296875 C 31.410156 -628.257812 31.171875 -628.222656 31.074219 -628.203125 C 31.667969 -628.339844 32.355469 -628.601562 33.132812 -628.992188 L 31.675781 -628.261719 L 30.105469 -627.8125 C 27.6875 -627.121094 24.863281 -624.351562 21.632812 -619.503906 C 18.785156 -615.234375 17.753906 -611.324219 18.542969 -607.769531 L 1.40625 -603.960938 L 18.4375 -608.21875 C 18.9375 -606.222656 19.410156 -605.03125 19.855469 -604.652344 C 19.75 -604.738281 19.667969 -604.792969 19.597656 -604.816406 C 19.902344 -604.714844 20.394531 -604.664062 21.070312 -604.664062 C 21.976562 -604.664062 24.339844 -605.300781 28.15625 -606.574219 L 28.796875 -606.785156 L 29.453125 -606.949219 C 38.339844 -609.171875 48.1875 -610.285156 58.992188 -610.285156 C 70.085938 -610.285156 81.175781 -609.527344 92.265625 -608.015625 C 104.214844 -606.386719 115.164062 -603.359375 125.113281 -598.9375 Z M 180.984375 -646.609375 C 198.847656 -643.929688 215.769531 -642.589844 231.753906 -642.589844 C 246.917969 -642.589844 261.386719 -643.476562 275.15625 -645.253906 L 319.433594 -650.875 L 321.644531 -633.457031 L 318.757812 -650.777344 C 325.332031 -651.871094 332.382812 -652.421875 339.90625 -652.421875 L 349.738281 -652.421875 L 349.738281 -634.863281 L 332.179688 -634.863281 L 332.179688 -647.503906 C 332.179688 -655.097656 331.769531 -661.761719 330.949219 -667.492188 L 348.332031 -669.976562 L 331.117188 -666.535156 C 327.226562 -685.984375 324.550781 -705.910156 323.09375 -726.3125 C 321.722656 -745.523438 319.664062 -764.269531 316.921875 -782.546875 C 311.328125 -822.640625 304.8125 -862.210938 297.375 -901.253906 C 290.03125 -939.8125 279.925781 -978.386719 267.066406 -1016.96875 L 283.722656 -1022.523438 L 300.648438 -1017.859375 C 282.875 -953.308594 265.332031 -888.289062 248.023438 -822.800781 L 195.347656 -624.730469 L 178.378906 -629.246094 Z M 175.773438 -611.882812 L 156.367188 -614.792969 L 214.078125 -831.773438 C 231.414062 -897.378906 248.988281 -962.515625 266.792969 -1027.183594 L 282.121094 -1082.84375 L 300.378906 -1028.074219 C 313.734375 -988.003906 324.230469 -947.921875 331.871094 -907.824219 C 339.414062 -868.210938 346.007812 -828.1875 351.648438 -787.753906 C 354.527344 -768.578125 356.683594 -748.933594 358.121094 -728.816406 C 359.472656 -709.886719 361.949219 -691.421875 365.546875 -673.421875 L 365.644531 -672.941406 L 365.710938 -672.460938 C 366.765625 -665.082031 367.292969 -656.761719 367.292969 -647.503906 L 367.292969 -617.304688 L 339.90625 -617.304688 C 334.320312 -617.304688 329.195312 -616.917969 324.53125 -616.140625 L 324.195312 -616.082031 L 279.648438 -610.425781 C 264.386719 -608.457031 248.421875 -607.472656 231.753906 -607.472656 C 214.023438 -607.472656 195.367188 -608.941406 175.773438 -611.882812 Z M 175.773438 -611.882812 "/></g></g></g><g fill="#000000" fill-opacity="1"><g transform="translate(34.229098, 1364.831397)"><g><path d="M 117.984375 -582.890625 C 109.554688 -586.640625 100.191406 -589.210938 89.890625 -590.609375 C 79.585938 -592.015625 69.285156 -592.71875 58.984375 -592.71875 C 49.628906 -592.71875 41.203125 -591.785156 33.703125 -589.921875 C 28.085938 -588.046875 23.875 -587.109375 21.0625 -587.109375 C 10.769531 -587.109375 4.21875 -592.726562 1.40625 -603.96875 C -0.464844 -612.394531 1.398438 -620.820312 7.015625 -629.25 C 12.640625 -637.675781 18.726562 -642.820312 25.28125 -644.6875 C 27.15625 -645.625 31.367188 -646.09375 37.921875 -646.09375 C 47.285156 -646.09375 58.988281 -645.15625 73.03125 -643.28125 C 87.082031 -641.414062 99.488281 -639.546875 110.25 -637.671875 C 121.019531 -635.796875 126.40625 -634.859375 126.40625 -634.859375 C 126.40625 -634.859375 127.578125 -637.898438 129.921875 -643.984375 C 132.265625 -650.078125 134.375 -656.867188 136.25 -664.359375 C 151.226562 -729.898438 168.3125 -794.742188 187.5 -858.890625 C 206.695312 -923.035156 223.320312 -987.878906 237.375 -1053.421875 C 240.175781 -1069.335938 244.148438 -1084.550781 249.296875 -1099.0625 C 254.453125 -1113.582031 259.375 -1128.332031 264.0625 -1143.3125 C 265.925781 -1149.863281 269.195312 -1155.710938 273.875 -1160.859375 C 278.5625 -1166.015625 284.65625 -1168.59375 292.15625 -1168.59375 C 301.507812 -1168.59375 308.523438 -1165.550781 313.203125 -1159.46875 C 317.890625 -1153.382812 321.171875 -1146.59375 323.046875 -1139.09375 C 324.921875 -1131.601562 326.796875 -1123.878906 328.671875 -1115.921875 C 330.546875 -1107.960938 331.945312 -1100.238281 332.875 -1092.75 C 355.351562 -976.632812 374.550781 -859.816406 390.46875 -742.296875 C 406.382812 -624.785156 426.515625 -507.976562 450.859375 -391.875 C 452.734375 -384.382812 454.609375 -376.425781 456.484375 -368 C 458.359375 -359.570312 459.765625 -352.546875 460.703125 -346.921875 C 465.378906 -331.941406 471.226562 -314.851562 478.25 -295.65625 C 485.269531 -276.457031 486.910156 -257.96875 483.171875 -240.1875 C 481.296875 -232.6875 478.25 -225.425781 474.03125 -218.40625 C 469.820312 -211.382812 463.503906 -207.875 455.078125 -207.875 C 445.710938 -206.9375 438.921875 -209.742188 434.703125 -216.296875 C 430.492188 -222.859375 427.453125 -229.882812 425.578125 -237.375 C 421.835938 -258.90625 418.328125 -280.203125 415.046875 -301.265625 C 411.765625 -322.335938 408.253906 -343.175781 404.515625 -363.78125 C 398.898438 -395.613281 393.046875 -427.210938 386.953125 -458.578125 C 380.867188 -489.953125 375.484375 -521.554688 370.796875 -553.390625 C 369.867188 -560.890625 367.296875 -568.382812 363.078125 -575.875 C 358.867188 -583.363281 356.765625 -587.109375 356.765625 -587.109375 C 356.765625 -587.109375 353.953125 -586.875 348.328125 -586.40625 C 342.710938 -585.9375 337.5625 -584.765625 332.875 -582.890625 C 310.40625 -579.148438 287.929688 -576.578125 265.453125 -575.171875 C 242.984375 -573.765625 220.515625 -573.0625 198.046875 -573.0625 C 191.492188 -573.0625 184.703125 -573.53125 177.671875 -574.46875 C 170.648438 -575.40625 167.140625 -575.875 167.140625 -575.875 C 167.140625 -575.875 165.734375 -570.957031 162.921875 -561.125 C 160.117188 -551.289062 157.78125 -543.097656 155.90625 -536.546875 C 140.925781 -470.992188 124.773438 -405.910156 107.453125 -341.296875 C 90.128906 -276.691406 75.378906 -211.148438 63.203125 -144.671875 C 62.265625 -140.921875 61.796875 -137.171875 61.796875 -133.421875 C 61.796875 -129.679688 61.328125 -125.472656 60.390625 -120.796875 C 58.523438 -115.171875 55.953125 -110.25 52.671875 -106.03125 C 49.390625 -101.820312 44.003906 -99.71875 36.515625 -99.71875 C 21.535156 -100.65625 13.109375 -110.019531 11.234375 -127.8125 C 11.234375 -134.363281 11.9375 -140.914062 13.34375 -147.46875 C 14.75 -154.03125 15.921875 -160.585938 16.859375 -167.140625 C 27.160156 -228.003906 40.503906 -287.929688 56.890625 -346.921875 C 73.273438 -405.921875 88.019531 -465.382812 101.125 -525.3125 C 103 -530.925781 105.804688 -540.285156 109.546875 -553.390625 C 113.296875 -566.503906 116.109375 -576.335938 117.984375 -582.890625 Z M 178.375 -629.25 C 197.101562 -626.4375 214.894531 -625.03125 231.75 -625.03125 C 247.664062 -625.03125 262.878906 -625.96875 277.390625 -627.84375 C 291.910156 -629.71875 306.660156 -631.585938 321.640625 -633.453125 C 327.265625 -634.390625 333.351562 -634.859375 339.90625 -634.859375 C 346.457031 -634.859375 349.734375 -634.859375 349.734375 -634.859375 C 349.734375 -634.859375 349.734375 -639.070312 349.734375 -647.5 C 349.734375 -655.925781 349.265625 -663.414062 348.328125 -669.96875 C 344.585938 -688.695312 342.015625 -707.894531 340.609375 -727.5625 C 339.203125 -747.226562 337.09375 -766.425781 334.28125 -785.15625 C 328.664062 -825.414062 322.113281 -865.207031 314.625 -904.53125 C 307.132812 -943.863281 296.832031 -983.191406 283.71875 -1022.515625 C 265.925781 -957.910156 248.367188 -892.832031 231.046875 -827.28125 C 213.722656 -761.738281 196.164062 -695.726562 178.375 -629.25 Z M 178.375 -629.25 "/></g></g></g></g></g><g clip-path="url(#d9511b50a6)"><path stroke-linecap="butt" transform="matrix(0.75, 0, 0, 0.75, 0.00003335, -0.00002)" fill="none" stroke-linejoin="miter" d="M 93.99997 0.0000266667 L 1906.000242 0.0000266667 C 1957.916916 0.0000266667 2000.000256 42.083366 2000.000256 94.000041 L 2000.000256 1906.000313 C 2000.000256 1957.916987 1957.916916 2000.000327 1906.000242 2000.000327 L 93.99997 2000.000327 C 42.083295 2000.000327 -0.0000444667 1957.916987 -0.0000444667 1906.000313 L -0.0000444667 94.000041 C -0.0000444667 42.083366 42.083295 0.0000266667 93.99997 0.0000266667 Z M 93.99997 0.0000266667 " stroke="#000000" stroke-width="80" stroke-opacity="1" stroke-miterlimit="4"/></g></svg>